<svg xmlns="http://www.w3.org/2000/svg" viewBox="0 0 81.59 60"><defs><style>.cls-1{fill:#93649b;}</style></defs><title>Asset 1</title><g id="Layer_2" data-name="Layer 2"><g id="Provider_icons" data-name="Provider icons"><polygon class="cls-1" points="53.72 0 53.72 20.27 66.34 15.26 66.34 4.55 53.72 0"/><path class="cls-1" d="M42.52,3.56V16.51l9.37,3.72V.19Zm4.72-.15V16.87l-1.83-.64V4ZM43.19,4.68l1.29-.4V15.91l-1.29-.45ZM50.78,18.1l-2.61-.91V3.13l2.61-.81Z"/><polygon class="cls-1" points="24.83 0 24.83 20.27 37.45 15.26 37.45 4.55 24.83 0"/><path class="cls-1" d="M13.63,3.56V16.51L23,20.23V.19Zm4.72-.15V16.87l-1.83-.64V4ZM14.3,4.68l1.29-.4V15.91l-1.29-.45ZM21.89,18.1l-2.61-.91V3.13l2.61-.81Z"/><polygon class="cls-1" points="53.72 39.73 53.72 60 66.34 54.99 66.34 44.28 53.72 39.73"/><path class="cls-1" d="M42.52,43.3V56.24L51.89,60v-20Zm4.72-.15V56.6L45.41,56V43.72Zm-4.05,1.26,1.29-.4V55.64l-1.29-.45Zm7.59,13.43-2.61-.91V42.86L50.78,42Z"/><polygon class="cls-1" points="24.83 39.73 24.83 60 37.45 54.99 37.45 44.28 24.83 39.73"/><path class="cls-1" d="M13.63,43.3V56.24L23,60v-20Zm4.72-.15V56.6L16.52,56V43.72ZM14.3,44.41l1.29-.4V55.64l-1.29-.45Zm7.59,13.43-2.61-.91V42.86L21.89,42Z"/><polygon class="cls-1" points="40.08 19.87 40.08 40.13 52.7 35.12 52.7 24.41 40.08 19.87"/><path class="cls-1" d="M28.89,23.43V36.38l9.37,3.72v-20Zm4.72-.15V36.74l-1.83-.64V23.85Zm-4.05,1.26,1.29-.4V35.78l-1.29-.45ZM37.14,38l-2.61-.91V23l2.61-.81Z"/><polygon class="cls-1" points="11.2 19.87 11.2 40.13 23.82 35.12 23.82 24.41 11.2 19.87"/><path class="cls-1" d="M0,23.43V36.38L9.37,40.1v-20Zm4.72-.15V36.74L2.89,36.1V23.85ZM.67,24.54,2,24.14V35.78L.67,35.33ZM8.26,38l-2.61-.91V23l2.61-.81Z"/><polygon class="cls-1" points="68.97 19.87 68.97 40.13 81.59 35.12 81.59 24.41 68.97 19.87"/><path class="cls-1" d="M57.77,23.43V36.38l9.37,3.72v-20Zm4.72-.15V36.74l-1.83-.64V23.85Zm-4.05,1.26,1.29-.4V35.78l-1.29-.45ZM66,38l-2.61-.91V23L66,22.18Z"/></g></g></svg>