<?xml version="1.0" encoding="utf-8"?>
<!-- Generator: Adobe Illustrator 22.1.0, SVG Export Plug-In . SVG Version: 6.00 Build 0)  -->
<svg version="1.1" id="Layer_1" xmlns="http://www.w3.org/2000/svg" xmlns:xlink="http://www.w3.org/1999/xlink" x="0px" y="0px"
	 viewBox="0 0 20.2 15" style="enable-background:new 0 0 20.2 15;" xml:space="preserve">
<style type="text/css">
	.st0{fill:#804998;}
	.st1{opacity:0.2;fill:#FFFFFF;enable-background:new    ;}
</style>
<g>
	<polygon class="st0" points="9.3,3.8 6.1,5 6.1,0 9.3,1.1 	"/>
	<path class="st0" d="M3.4,0.9v3.3L5.7,5V0L3.4,0.9z M3.6,3.9l-0.1,0V1.1l0.1,0l0.1,0l0.1,0v3l-0.1,0L3.6,3.9z M4.2,4L4,4V1l0.1,0
		l0.1,0l0.1,0v3.3L4.4,4.1L4.2,4z M4.9,4.3L4.8,4.2V0.8l0.2,0l0.2-0.1l0.2-0.1v3.9L5.1,4.4L4.9,4.3z"/>
	<polygon class="st0" points="16.5,3.8 13.4,5 13.4,0 16.5,1.1 	"/>
	<path class="st0" d="M10.6,0.9v3.3L12.9,5V0L10.6,0.9z M10.8,3.9l-0.1,0V1.1l0.1,0L11,1l0.1,0v3l-0.1,0L10.8,3.9z M11.4,4l-0.1,0V1
		l0.1,0l0.1,0l0.1,0v3.3l-0.1-0.1L11.4,4z M12.2,4.3L12,4.2V0.8l0.2,0l0.2-0.1l0.2-0.1v3.9l-0.2-0.1L12.2,4.3z"/>
	<polygon class="st0" points="9.3,13.8 6.1,15 6.1,10 9.3,11 	"/>
	<path class="st0" d="M3.4,10.8v3.3L5.7,15v-5L3.4,10.8z M3.6,13.8l-0.1,0v-2.7l0.1,0l0.1,0l0.1,0v3l-0.1,0L3.6,13.8z M4.2,14L4,14
		v-3l0.1,0l0.1,0l0.1,0v3.3l-0.1,0L4.2,14z M4.9,14.3l-0.2-0.1v-3.4l0.2,0l0.2-0.1l0.2-0.1v3.9l-0.2-0.1L4.9,14.3z"/>
	<polygon class="st0" points="16.5,13.8 13.4,15 13.4,10 16.5,11 	"/>
	<path class="st0" d="M10.6,10.8v3.3l2.3,0.9v-5L10.6,10.8z M10.8,13.8l-0.1,0v-2.7l0.1,0l0.1,0l0.1,0v3l-0.1,0L10.8,13.8z M11.4,14
		l-0.1,0v-3l0.1,0l0.1,0l0.1,0v3.3l-0.1-0.1L11.4,14z M12.2,14.3L12,14.1v-3.4l0.2,0l0.2-0.1l0.2-0.1v3.9l-0.2-0.1L12.2,14.3z"/>
	<polygon class="st0" points="13.1,8.8 10,10 10,5 13.1,6.1 	"/>
	<path class="st0" d="M7.2,5.8v3.3L9.5,10V5L7.2,5.8z M7.4,8.8l-0.1,0V6.1l0.1,0l0.1,0l0.1,0v3l-0.1,0L7.4,8.8z M8,9L7.9,9v-3l0.1,0
		l0.1,0l0.1,0v3.3l-0.1,0L8,9z M8.8,9.3L8.6,9.2V5.8l0.2,0L9,5.6l0.2-0.1v3.9L9,9.3L8.8,9.3z"/>
	<polygon class="st0" points="5.9,8.8 2.8,10 2.8,5 5.9,6.1 	"/>
	<path class="st0" d="M0,5.8v3.3L2.3,10V5L0,5.8z M0.2,8.8l-0.1,0V6.1l0.1,0L0.4,6l0.1,0v3l-0.1,0L0.2,8.8z M0.9,9L0.7,9v-3l0.1,0
		l0.1,0l0.1,0v3.3L1,9.1L0.9,9z M1.6,9.3L1.4,9.2V5.8l0.2,0l0.2-0.1L2,5.5v3.9L1.8,9.3L1.6,9.3z"/>
	<polygon class="st0" points="20.2,8.8 17.1,10 17.1,5 20.2,6.1 	"/>
	<polygon class="st1" points="9.3,3.8 6.1,5 6.1,0 9.3,1.1 	"/>
	<polygon class="st1" points="16.5,3.8 13.4,5 13.4,0 16.5,1.1 	"/>
	<polygon class="st1" points="9.3,13.8 6.1,15 6.1,10 9.3,11 	"/>
	<polygon class="st1" points="16.5,13.8 13.4,15 13.4,10 16.5,11 	"/>
	<polygon class="st1" points="13.1,8.8 10,10 10,5 13.1,6.1 	"/>
	<polygon class="st1" points="5.9,8.8 2.8,10 2.8,5 5.9,6.1 	"/>
	<polygon class="st1" points="20.2,8.8 17.1,10 17.1,5 20.2,6.1 	"/>
	<path class="st0" d="M14.3,5.8v3.3l2.3,0.9V5L14.3,5.8z M14.6,8.8l-0.1,0V6.1l0.1,0l0.1,0l0.1,0v3l-0.1,0L14.6,8.8z M15.1,9L15,9
		v-3l0.1,0l0.1,0l0.1,0v3.3l-0.1-0.1L15.1,9z M15.9,9.3l-0.2-0.1V5.8l0.2,0l0.2-0.1l0.2-0.1v3.9l-0.2-0.1L15.9,9.3z"/>
</g>
</svg>
